<svg xmlns="http://www.w3.org/2000/svg" viewBox="0 0 17 18"><path d="M8.5 0c1.23 0 2.409.474 3.278 1.318A4.433 4.433 0 0 1 13.136 4.5v1.499L14.682 6c.384 0 .71.274.765.644l1.545 10.5c.067.452-.295.856-.765.856H.773c-.47 0-.832-.404-.765-.856l1.545-10.5A.765.765 0 0 1 2.318 6l1.545-.001V4.5C3.864 2.015 5.94 0 8.5 0zm5.512 7.5h-1.648l-.016-.001H4.652l-.016.001-.015-.001-1.633.001-1.324 9h13.672l-1.324-9zM8.5 1.5c-1.707 0-3.09 1.343-3.09 3l-.001 1.499h6.181V4.5c0-.796-.325-1.559-.904-2.121A3.139 3.139 0 0 0 8.5 1.5z"/></svg>