<svg xmlns="http://www.w3.org/2000/svg" width="24" height="24" viewBox="0 0 24 24"><path fill="#36475c" d="M19.59 6a.5.5 0 0 1 .49.402l.91 4.55a.5.5 0 0 1 .01.098v2.45a.5.5 0 0 1-.5.5H20v5.5a.5.5 0 1 1-1 0V14h-5v5.5a.5.5 0 0 1-.5.5h-9a.5.5 0 0 1-.5-.5V14h-.5a.5.5 0 0 1-.5-.5v-2.45a.5.5 0 0 1 .01-.099l.91-4.55A.5.5 0 0 1 4.41 6h15.18Zm-.372 1H4.781L4 11.122V13h.5a.5.5 0 0 1 .5.5V19h8v-5.5a.5.5 0 0 1 .5-.5H20v-1.874L19.218 7ZM11.5 14a.5.5 0 0 1 .5.5v3a.5.5 0 0 1-.5.5h-5a.5.5 0 0 1-.5-.5v-3a.5.5 0 0 1 .5-.5h5Zm-.5 1H7v2h4v-2Zm8.501-10.998a.499.499 0 0 1 0 .998H4.5a.499.499 0 0 1 0-.998h15Z"/></svg>