<svg xmlns="http://www.w3.org/2000/svg" viewBox="0 0 175 100"><g fill="none" fill-rule="evenodd"><rect width="174.167" height="99.167" x=".417" y=".417" fill="#FFF" stroke="#E5E5E5" stroke-width=".833" rx="5"/><g transform="translate(10 10)"><rect width="75" height="80" fill="#F2F2F2" rx="2.5"/><path fill="#D9D9D9" fill-rule="nonzero" d="M44 29.583h-2.75c0 2.125-1.75 3.75-3.75 3.75s-3.75-1.625-3.75-3.75H31l-3.5 1.75v5.75c0 .75.5 1.25 1.25 1.25h2.5v10c0 .75.5 1.25 1.25 1.25h10c.75 0 1.25-.5 1.25-1.25v-10h2.5c.75 0 1.25-.5 1.25-1.25v-5.75l-3.5-1.75z"/></g><rect width="15" height="13.294" x="97.5" y="41.743" fill="#F2F2F2" rx=".833"/><rect width="15" height="13.294" x="115.833" y="41.743" fill="#F2F2F2" rx=".833"/><rect width="15" height="13.294" x="134.583" y="41.743" fill="#F2F2F2" rx=".833"/><rect width="65.833" height="4.985" x="97.5" y="23.463" fill="#F2F2F2" rx="2.493"/><g transform="translate(97.5 65.963)"><rect width="57.5" height="14.125" fill="#9B9B9B" rx="1.667"/><rect width="1" height="6.647" x="28.333" y="3.739" fill="#E5E5E5" stroke="#E5E5E5" stroke-width=".833" rx=".417"/><path fill="#E5E5E5" stroke="#E5E5E5" stroke-width=".833" d="M32.083 7.063a.415.415 0 0 1-.415.415h-5.836a.415.415 0 0 1 0-.83h5.836c.23 0 .415.185.415.415z"/></g><rect width="45.417" height="4.985" x="97.5" y="32.603" fill="#F2F2F2" rx="2.493"/></g></svg>