<svg xmlns="http://www.w3.org/2000/svg" viewBox="0 0 24 24"><path d="M19.554 12.662A5.145 5.145 0 0 0 21 9.074c0-1.346-.52-2.636-1.446-3.588A4.858 4.858 0 0 0 16.06 4c-1.5-.01-2.92.7-3.834 1.922l-.226.3-.225-.3A4.759 4.759 0 0 0 7.938 4C5.941 4 4.141 5.236 3.376 7.132c-.764 1.896-.342 4.079 1.065 5.524L12 20l7.553-7.338zM12 17.522l-.195-.19-6.142-5.97a3.34 3.34 0 0 1-.658-3.556C5.5 6.592 6.657 5.802 7.938 5.8c1.669 0 2.74.758 4.062 2.872C13.322 6.558 14.393 5.8 16.062 5.8c1.283 0 2.442.79 2.938 2.007a3.34 3.34 0 0 1-.663 3.56l-.084.088h-.01L12 17.522z"/></svg>