<svg xmlns="http://www.w3.org/2000/svg" width="24" height="24" viewBox="0 0 24 24"><path d="M16 9a5 5 0 0 1 5 5c0 1.78-1.558 4.02-4.673 6.72a.5.5 0 0 1-.58.053l-.074-.054-.307-.268C12.456 17.87 11 15.72 11 14a5 5 0 0 1 5-5Zm0 3.25a1.75 1.75 0 1 0 0 3.5 1.75 1.75 0 0 0 0-3.5Zm-8.833 1.5a.5.5 0 0 1 .5.5 4.25 4.25 0 0 0 4.044 4.245l.206.005h.333a.5.5 0 0 1 .09.992l-.09.008h-.333a5.25 5.25 0 0 1-5.25-5.25.5.5 0 0 1 .5-.5ZM7.165 3c2.3 0 4.165 1.865 4.165 4.165 0 1.482-1.297 3.348-3.892 5.597a.417.417 0 0 1-.484.045l-.062-.045-.255-.223C4.212 10.389 3 8.598 3 7.165 3 4.865 4.865 3 7.165 3Zm.002 2.752a1.415 1.415 0 1 0 0 2.83 1.415 1.415 0 0 0 0-2.83Z"/></svg>