<svg xmlns="http://www.w3.org/2000/svg" width="24" height="24" viewBox="0 0 24 24"><path fill="#36475c" d="M16 9a5 5 0 0 1 5 5c0 1.78-1.558 4.02-4.673 6.72a.5.5 0 0 1-.58.053l-.074-.054-.307-.268C12.456 17.87 11 15.72 11 14a5 5 0 0 1 5-5Zm0 1a4 4 0 0 0-4 4c0 1.307 1.226 3.163 3.75 5.452l.249.223.236-.21c2.443-2.213 3.675-4.02 3.76-5.322L20 14a4 4 0 0 0-4-4Zm-8.833 3.75a.5.5 0 0 1 .5.5 4.25 4.25 0 0 0 4.044 4.245l.206.005h.333a.5.5 0 0 1 .09.992l-.09.008h-.333a5.25 5.25 0 0 1-5.25-5.25.5.5 0 0 1 .5-.5ZM16 12a2 2 0 1 1 0 4 2 2 0 0 1 0-4Zm0 1a1 1 0 1 0 0 2 1 1 0 0 0 0-2ZM7.165 3c2.3 0 4.165 1.865 4.165 4.165 0 1.482-1.297 3.348-3.892 5.597a.417.417 0 0 1-.484.045l-.062-.045-.255-.223C4.212 10.389 3 8.598 3 7.165 3 4.865 4.865 3 7.165 3Zm0 .833a3.332 3.332 0 0 0-3.332 3.332c0 1.088 1.021 2.635 3.124 4.541l.207.186.197-.174c2.034-1.844 3.061-3.35 3.132-4.434l.004-.119a3.332 3.332 0 0 0-3.332-3.332ZM7.167 5.5a1.667 1.667 0 1 1 0 3.333 1.667 1.667 0 0 1 0-3.333Zm0 1a.667.667 0 1 0 0 1.333.667.667 0 0 0 0-1.333Z"/></svg>