<svg xmlns="http://www.w3.org/2000/svg" viewBox="0 0 24 24"><g fill="none" fill-rule="evenodd" class="nc-icon-wrapper"><path d="M0 0h24v24H0z"/><path fill="currentColor" fill-rule="nonzero" d="M8.884 4c.147 0 .288.047.405.132l.083.071L12 6.843l2.628-2.64a.69.69 0 0 1 .274-.169l.105-.025.109-.009 2.131.002.08.011.102.029.037.014.059.03.059.035.04.03.058.052 3.116 3.131a.697.697 0 0 1 .139.781l-.053.095-2.077 3.13a.69.69 0 0 1-.79.275l-.104-.044-.029-.018v7.753a.694.694 0 0 1-.491.665l-.098.021-.102.008H6.807a.692.692 0 0 1-.684-.592l-.007-.102v-7.753l-.029.018a.69.69 0 0 1-.742-.067l-.086-.079-.066-.084-2.077-3.13a.697.697 0 0 1 .016-.794l.07-.083 3.136-3.15.078-.062.082-.049.101-.04.074-.02A.697.697 0 0 1 6.807 4l-.107.008.053-.006L8.884 4zM7.497 18.612h9.006V5.388h-1.101l-2.914 2.928a.689.689 0 0 1-.797.13l-.094-.057-.085-.073-2.915-2.928h-1.1v13.224zM6.116 6.369 4.579 7.914l1.296 1.952.241-.243V6.37zm11.768.001v3.255l.24.24 1.296-1.951-1.536-1.544z"/></g></svg>