<svg xmlns="http://www.w3.org/2000/svg" viewBox="0 0 24 24"><g fill="none" fill-rule="evenodd"><path d="M0 0h24v24H0z"/><path fill="#000" d="M18.52 18.122a7.471 7.471 0 0 1-1.218.703c-1.412.66-3.17 1.06-5.302 1.06-2.131 0-3.89-.4-5.302-1.06a7.471 7.471 0 0 1-1.218-.703l-.09-.066a4.873 4.873 0 0 1 2.753-4.021.806.806 0 0 0 .377-1.08.817.817 0 0 0-1.087-.374 6.484 6.484 0 0 0-3.683 5.84c0 .214.086.419.238.57.35.348 1.016.828 2.017 1.296C7.63 21.047 9.626 21.5 12 21.5s4.369-.453 5.995-1.213c1.001-.468 1.667-.948 2.017-1.296a.806.806 0 0 0 .238-.57 6.485 6.485 0 0 0-3.684-5.84.816.816 0 0 0-1.087.375.805.805 0 0 0 .377 1.079 4.871 4.871 0 0 1 2.753 4.021l-.089.066zM16.75 7.238c0 2.784-2.213 5.862-4.75 5.862s-4.75-3.078-4.75-5.862C7.25 4.62 9.377 2.5 12 2.5s4.75 2.121 4.75 4.737zm-1.604 0A3.142 3.142 0 0 0 12 4.1a3.142 3.142 0 0 0-3.146 3.138C8.854 9.23 10.485 11.5 12 11.5s3.146-2.269 3.146-4.263z"/></g></svg>