<svg xmlns="http://www.w3.org/2000/svg" viewBox="0 0 20 20"><path fill="none" d="M0 0h20v20H0z"/><path fill="currentColor" d="m6.25 4 .056.002.095.013.083.022.083.033.074.04.078.055.061.055 3 3a.749.749 0 0 1-.99 1.123l-.07-.063L7 6.561v8.689a.75.75 0 0 1-1.495.087L5.5 15.25V6.561l-1.72 1.72a.751.751 0 0 1-.99.062l-.07-.063a.751.751 0 0 1-.063-.99l.063-.07 3-3a.646.646 0 0 1 .084-.073l.083-.053.084-.04.08-.027.088-.019.043-.005L6.25 4zm7.5 0a.75.75 0 0 1 .745.663l.005.087v8.689l1.72-1.72c.27-.27.695-.29.99-.062l.07.063c.27.27.291.695.063.99l-.063.07-3 3a.646.646 0 0 1-.084.073l-.083.053-.084.04-.08.027-.11.022-.089.005-.056-.002-.095-.013-.083-.022-.083-.033-.074-.04-.069-.047-.07-.063-3-3a.749.749 0 0 1 .99-1.123l.07.063L13 13.439V4.75a.75.75 0 0 1 .75-.75z"/></svg>